<?xml version="1.0" encoding="iso-8859-1"?>
<!-- Generator: Adobe Illustrator 19.0.0, SVG Export Plug-In . SVG Version: 6.00 Build 0)  -->
<svg version="1.1" id="Layer_1" xmlns="http://www.w3.org/2000/svg" xmlns:xlink="http://www.w3.org/1999/xlink" x="0px" y="0px"
	 viewBox="0 0 492.756 492.756" style="enable-background:new 0 0 492.756 492.756;" xml:space="preserve">
<g>
	<path style="fill:#CD2A00;" d="M229.755,334.241c0-35.891,17.842-67.69,45.12-87.002c17.368-12.296,38.561-19.53,61.412-19.53
		c11.049,0,21.708,1.694,31.736,4.83c3.463-14.292,5.216-28.97,5.216-43.872c0-102.9-83.72-186.62-186.62-186.62v104.4
		c44.11,0,80,35.88,80,80c0,44.11-35.89,80-80,80v221.9l68.121-85.648c-5.281-6.282-9.86-13.174-13.595-20.564
		C233.865,367.728,229.755,351.457,229.755,334.241z"/>
	<path style="fill:#CD2A00;" d="M305.589,275.244c9.192-4.802,19.629-7.535,30.699-7.535
		C325.218,267.708,314.781,270.441,305.589,275.244c-21.272,11.114-35.834,33.38-35.834,58.998
		C269.755,308.624,284.317,286.358,305.589,275.244z"/>
	<path style="fill:#D8D7DA;" d="M266.62,186.447c0-44.12-35.89-80-80-80v160C230.73,266.447,266.62,230.557,266.62,186.447z"/>
	<path style="fill:#FF3501;" d="M106.62,186.447c0-44.12,35.89-80,80-80V2.047C83.72,2.047,0,85.767,0,188.667
		c0,42.37,13.9,82.33,40.23,115.62l146.39,184.06v-221.9C142.51,266.447,106.62,230.557,106.62,186.447z"/>
	<path style="fill:#FFFFFF;" d="M106.62,186.447c0,44.11,35.89,80,80,80v-160C142.51,106.447,106.62,142.327,106.62,186.447z"/>
	<path style="fill:#005ECE;" d="M424.394,394.063c-7.566,11.108-17.176,20.718-28.284,28.284l68.362,68.362l28.284-28.284
		L424.394,394.063z"/>
	<path style="fill:#46F8FF;" d="M389.586,294.459c-0.639-0.854-1.298-1.693-1.977-2.514c-12.213-14.792-30.685-24.236-51.321-24.236
		v133.066c36.686,0,66.533-29.847,66.533-66.533c0-11.464-2.915-22.261-8.042-31.687
		C393.241,299.726,391.503,297.021,389.586,294.459z"/>
	<path style="fill:#9BFBFF;" d="M336.288,267.708c-11.07,0-21.507,2.733-30.699,7.535c-21.272,11.114-35.834,33.381-35.834,58.998
		c0,1.846,0.096,3.669,0.244,5.478c0.036,0.438,0.056,0.88,0.1,1.315c1.571,15.419,8.437,29.289,18.735,39.78
		c0.145,0.148,0.283,0.304,0.43,0.451s0.302,0.284,0.451,0.43c0.152,0.149,0.308,0.293,0.462,0.44
		c1.304,1.256,2.66,2.46,4.062,3.608c7.013,5.74,15.211,10.082,24.169,12.589c1.792,0.501,3.614,0.929,5.462,1.28
		c1.849,0.351,3.725,0.625,5.625,0.818c0.435,0.044,0.877,0.064,1.315,0.1c1.809,0.148,3.632,0.244,5.478,0.244V267.708z"/>
	<path style="fill:#2488FF;" d="M424.394,394.063c11.623-17.065,18.427-37.663,18.427-59.822c0-23.14-7.42-44.577-20-62.067
		c-13.349-18.558-32.511-32.665-54.797-39.636c-10.028-3.137-20.688-4.83-31.736-4.83c-22.852,0-44.044,7.235-61.412,19.53
		c-27.278,19.312-45.12,51.112-45.12,87.002c0,17.215,4.11,33.487,11.391,47.894c3.735,7.39,8.313,14.282,13.595,20.564
		c19.556,23.261,48.85,38.076,81.547,38.076c22.159,0,42.758-6.804,59.822-18.427C407.218,414.781,416.828,405.171,424.394,394.063z
		 M336.288,400.774c-1.847,0-3.67-0.096-5.478-0.244c-0.438-0.036-0.88-0.056-1.315-0.1c-1.9-0.194-3.776-0.467-5.625-0.818
		c-1.849-0.351-3.671-0.779-5.462-1.28c-8.958-2.506-17.156-6.849-24.169-12.589c-1.403-1.148-2.758-2.352-4.062-3.608
		c-0.153-0.147-0.31-0.291-0.462-0.44c-0.148-0.145-0.304-0.283-0.451-0.43s-0.284-0.303-0.43-0.451
		c-10.298-10.491-17.164-24.361-18.735-39.78c-0.044-0.435-0.064-0.878-0.1-1.315c-0.148-1.809-0.244-3.632-0.244-5.478
		c0-25.617,14.562-47.884,35.834-58.998c9.192-4.802,19.63-7.535,30.699-7.535c20.636,0,39.108,9.444,51.321,24.236
		c0.679,0.822,1.338,1.66,1.977,2.514c1.917,2.562,3.655,5.267,5.193,8.095c5.127,9.426,8.042,20.223,8.042,31.687
		C402.821,370.928,372.974,400.774,336.288,400.774z"/>
</g>
<g>
</g>
<g>
</g>
<g>
</g>
<g>
</g>
<g>
</g>
<g>
</g>
<g>
</g>
<g>
</g>
<g>
</g>
<g>
</g>
<g>
</g>
<g>
</g>
<g>
</g>
<g>
</g>
<g>
</g>
</svg>
