<?xml version="1.0" encoding="iso-8859-1"?>
<!-- Generator: Adobe Illustrator 19.0.0, SVG Export Plug-In . SVG Version: 6.00 Build 0)  -->
<svg version="1.1" id="Layer_1" xmlns="http://www.w3.org/2000/svg" xmlns:xlink="http://www.w3.org/1999/xlink" x="0px" y="0px"
	 viewBox="0 0 512 512" style="enable-background:new 0 0 512 512;" xml:space="preserve">
<path style="fill:#EFC75E;" d="M256,0C114.616,0,0,114.611,0,255.995C0,397.384,114.616,512,256,512s256-114.616,256-256.005
	C512,114.611,397.384,0,256,0z"/>
<path style="fill:#324D5B;" d="M403.692,373.222c0.502-2.309,0.788-4.695,0.788-7.153c0-18.381-14.899-33.28-33.28-33.28
	c-18.381,0-33.28,14.899-33.28,33.28c0,18.381,14.899,33.28,33.28,33.28c2.452,0,4.838-0.287,7.148-0.788l48.256,48.261
	c8.914-7.982,17.254-16.573,24.975-25.713L403.692,373.222L403.692,373.222z"/>
<path style="fill:#B4E7F8;" d="M256,127.99c70.692,0,128,57.308,128,128s-57.308,128-128,128s-128-57.308-128-128
	S185.308,127.99,256,127.99z"/>
<path style="fill:#2D4552;" d="M388.588,388.321c-2.304,0.507-4.69,0.788-7.148,0.788c-18.381,0-33.28-14.899-33.28-33.28
	c0-6.564,1.93-12.672,5.212-17.828c-9.283,5.903-15.452,16.251-15.452,28.068c0,18.381,14.899,33.28,33.28,33.28
	c2.452,0,4.838-0.287,7.148-0.788l48.256,48.261c3.604-3.226,7.137-6.518,10.552-9.933L388.588,388.321z"/>
<path style="fill:#FFFFFF;" d="M248.238,332.785c-38.067,0-69.038-30.966-69.038-69.023c0-4.291,3.476-7.767,7.762-7.767
	s7.762,3.476,7.762,7.767c0,29.507,24.008,53.509,53.519,53.509c4.285,0,7.762,3.476,7.762,7.757
	C256,329.308,252.523,332.785,248.238,332.785L248.238,332.785z"/>
<path style="fill:#3C5663;" d="M256,97.27c-87.66,0-158.72,71.06-158.72,158.72S168.34,414.71,256,414.71
	s158.72-71.06,158.72-158.72S343.66,97.27,256,97.27z M256,383.99c-70.692,0-128-57.308-128-128s57.308-128,128-128
	s128,57.308,128,128S326.692,383.99,256,383.99z"/>
<path style="fill:#A2CFDF;" d="M256,127.99c-39.255,0-74.363,17.69-97.843,45.517c22.282-18.801,51.052-30.157,82.483-30.157
	c70.692,0,128,57.308,128,128c0,31.437-11.351,60.206-30.157,82.483C366.31,330.353,384,295.245,384,255.99
	C384,185.298,326.692,127.99,256,127.99z"/>
<g>
</g>
<g>
</g>
<g>
</g>
<g>
</g>
<g>
</g>
<g>
</g>
<g>
</g>
<g>
</g>
<g>
</g>
<g>
</g>
<g>
</g>
<g>
</g>
<g>
</g>
<g>
</g>
<g>
</g>
</svg>
